# xmcd
#
# Track frame offsets: 
#        150
#        11360
#        35555
#        48250
#        63483
#        79410
#        89888
#        105490
#        122993
#        142083
#
# Disc length: 2056 seconds
#
# Revision: 8
# Processed by: cddbd v1.5.2PL0 Copyright (c) Steve Scherf et al.
# Submitted via: ExactAudioCopyFreeDBPlugin 1.0
#
DISCID=8c08060a
DTITLE=ZZ Top - ZZ Top's First Album
DYEAR=1971
DGENRE=Blues
TTITLE0=(Somebody Else Been) Shaking Your Tree
TTITLE1=Brown Sugar
TTITLE2=Squank
TTITLE3=Goin' Down To Mexico
TTITLE4=Old Man
TTITLE5=Neighbor, Neighbor
TTITLE6=Certified Blues
TTITLE7=Bedroom Thang
TTITLE8=Just Got Back From Baby's
TTITLE9=Backdoor Love Affair
EXTD=
EXTT0=
EXTT1=
EXTT2=
EXTT3=
EXTT4=
EXTT5=
EXTT6=
EXTT7=
EXTT8=
EXTT9=
PLAYORDER=
